<svg class="nc-icon" style="display: none;"><symbol id="nc-icon-media" viewBox="0 0 48 48"><g >
<path fill="#a8a8ad" d="M42,0H6C2.7,0,0,2.7,0,6v36c0,3.3,2.7,6,6,6h36c3.3,0,6-2.7,6-6V6C48,2.7,45.3,0,42,0z M36,24.9
	c0,1.9-0.2,3.9-0.2,3.9s-0.2,1.7-1,2.4c-0.9,1-1.9,1-2.4,1C29,32.4,24,32.4,24,32.4s-6.2-0.1-8.2-0.2c-0.5-0.1-1.7-0.1-2.6-1
	c-0.7-0.7-1-2.4-1-2.4S12,26.8,12,24.9v-1.8c0-1.9,0.2-3.9,0.2-3.9s0.2-1.7,1-2.4c0.9-1,1.9-1,2.4-1c3.4-0.2,8.4-0.2,8.4-0.2h0
	c0,0,5,0,8.4,0.2c0.5,0.1,1.5,0.1,2.4,1c0.7,0.7,1,2.4,1,2.4s0.2,1.9,0.2,3.9V24.9z"/>
<polygon fill="#a8a8ad" points="21.5,27.1 28,23.8 21.5,20.4 "/>
</g></symbol><symbol id="nc-icon-media-active" viewBox="0 0 48 48"><g >
<path fill="#f61212" d="M42,0H6C2.7,0,0,2.7,0,6v36c0,3.3,2.7,6,6,6h36c3.3,0,6-2.7,6-6V6C48,2.7,45.3,0,42,0z M36,24.9
	c0,1.9-0.2,3.9-0.2,3.9s-0.2,1.7-1,2.4c-0.9,1-1.9,1-2.4,1C29,32.4,24,32.4,24,32.4s-6.2-0.1-8.2-0.2c-0.5-0.1-1.7-0.1-2.6-1
	c-0.7-0.7-1-2.4-1-2.4S12,26.8,12,24.9v-1.8c0-1.9,0.2-3.9,0.2-3.9s0.2-1.7,1-2.4c0.9-1,1.9-1,2.4-1c3.4-0.2,8.4-0.2,8.4-0.2h0
	c0,0,5,0,8.4,0.2c0.5,0.1,1.5,0.1,2.4,1c0.7,0.7,1,2.4,1,2.4s0.2,1.9,0.2,3.9V24.9z"/>
<polygon fill="#f61212" points="21.5,27.1 28,23.8 21.5,20.4 "/>
</g></symbol><symbol id="nc-icon-media-2" viewBox="0 0 48 48"><g >
<path fill="#a8a8ad" d="M42,0H6C2.7,0,0,2.7,0,6v36c0,3.3,2.7,6,6,6h36c3.3,0,6-2.7,6-6V6C48,2.7,45.3,0,42,0z M33.5,19.1
	c0,0.2,0,0.4,0,0.6c0,6.5-5,14-14,14c-2.8,0-5.4-0.8-7.5-2.2c0.4,0,0.8,0.1,1.2,0.1c2.3,0,4.4-0.8,6.1-2.1c-2.2,0-4-1.5-4.6-3.4
	c0.3,0.1,0.6,0.1,0.9,0.1c0.4,0,0.9-0.1,1.3-0.2c-2.3-0.5-3.9-2.4-3.9-4.8c0,0,0,0,0-0.1c0.7,0.4,1.4,0.6,2.2,0.6
	c-1.3-0.9-2.2-2.4-2.2-4.1c0-0.9,0.2-1.7,0.7-2.5c2.4,3,6.1,4.9,10.1,5.1c-0.1-0.4-0.1-0.7-0.1-1.1c0-2.7,2.2-4.9,4.9-4.9
	c1.4,0,2.7,0.6,3.6,1.6c1.1-0.2,2.2-0.6,3.1-1.2c-0.4,1.1-1.1,2.1-2.2,2.7c1-0.1,1.9-0.4,2.8-0.8C35.3,17.5,34.5,18.4,33.5,19.1z"/>
</g></symbol><symbol id="nc-icon-media-2-active" viewBox="0 0 48 48"><g >
<path fill="#f61212" d="M42,0H6C2.7,0,0,2.7,0,6v36c0,3.3,2.7,6,6,6h36c3.3,0,6-2.7,6-6V6C48,2.7,45.3,0,42,0z M33.5,19.1
	c0,0.2,0,0.4,0,0.6c0,6.5-5,14-14,14c-2.8,0-5.4-0.8-7.5-2.2c0.4,0,0.8,0.1,1.2,0.1c2.3,0,4.4-0.8,6.1-2.1c-2.2,0-4-1.5-4.6-3.4
	c0.3,0.1,0.6,0.1,0.9,0.1c0.4,0,0.9-0.1,1.3-0.2c-2.3-0.5-3.9-2.4-3.9-4.8c0,0,0,0,0-0.1c0.7,0.4,1.4,0.6,2.2,0.6
	c-1.3-0.9-2.2-2.4-2.2-4.1c0-0.9,0.2-1.7,0.7-2.5c2.4,3,6.1,4.9,10.1,5.1c-0.1-0.4-0.1-0.7-0.1-1.1c0-2.7,2.2-4.9,4.9-4.9
	c1.4,0,2.7,0.6,3.6,1.6c1.1-0.2,2.2-0.6,3.1-1.2c-0.4,1.1-1.1,2.1-2.2,2.7c1-0.1,1.9-0.4,2.8-0.8C35.3,17.5,34.5,18.4,33.5,19.1z"/>
</g></symbol><symbol id="nc-icon-linkedin" viewBox="0 0 48 48"><g >
<path fill="#a8a8ad" d="M42,0H6C2.7,0,0,2.7,0,6v36c0,3.3,2.7,6,6,6h36c3.3,0,6-2.7,6-6V6C48,2.7,45.3,0,42,0z M17.4,36h-5V20h5V36z
	 M14.9,17.8c-1.6,0-2.9-1.3-2.9-2.9c0-1.6,1.3-2.9,2.9-2.9c1.6,0,2.9,1.3,2.9,2.9C17.8,16.5,16.5,17.8,14.9,17.8z M36,36h-5v-7.8
	c0-1.9,0-4.2-2.6-4.2c-2.6,0-3,2-3,4.1V36h-5V20h4.8v2.2h0.1c0.7-1.3,2.3-2.6,4.7-2.6c5,0,6,3.3,6,7.6V36z"/>
</g></symbol><symbol id="nc-icon-linkedin-active" viewBox="0 0 48 48"><g >
<path fill="#f61212" d="M42,0H6C2.7,0,0,2.7,0,6v36c0,3.3,2.7,6,6,6h36c3.3,0,6-2.7,6-6V6C48,2.7,45.3,0,42,0z M17.4,36h-5V20h5V36z
	 M14.9,17.8c-1.6,0-2.9-1.3-2.9-2.9c0-1.6,1.3-2.9,2.9-2.9c1.6,0,2.9,1.3,2.9,2.9C17.8,16.5,16.5,17.8,14.9,17.8z M36,36h-5v-7.8
	c0-1.9,0-4.2-2.6-4.2c-2.6,0-3,2-3,4.1V36h-5V20h4.8v2.2h0.1c0.7-1.3,2.3-2.6,4.7-2.6c5,0,6,3.3,6,7.6V36z"/>
</g></symbol><symbol id="nc-icon-instagram" viewBox="0 0 48 48"><g >
<path fill="#a8a8ad" d="M29.3,19.3h3.2c0.4,0,0.7-0.3,0.7-0.7v-3.2c0-0.4-0.3-0.7-0.7-0.7h-3.2c-0.4,0-0.7,0.3-0.7,0.7v3.2
	C28.7,19,29,19.3,29.3,19.3z"/>
<path fill="#a8a8ad" d="M31.3,24c0,4-3.3,7.3-7.3,7.3c-4,0-7.3-3.3-7.3-7.3c0-0.7,0.1-1.3,0.3-1.9h-2.2v10.4c0,0.4,0.3,0.7,0.7,0.7
	h17.2c0.4,0,0.7-0.3,0.7-0.7V22.1h-2.2C31.2,22.7,31.3,23.4,31.3,24z"/>
<ellipse fill="#a8a8ad" cx="24" cy="24" rx="4.6" ry="4.6"/>
<path fill="#a8a8ad" d="M42,0H6C2.7,0,0,2.7,0,6v36c0,3.3,2.7,6,6,6h36c3.3,0,6-2.7,6-6V6C48,2.7,45.3,0,42,0z M36,33.2
	c0,1.6-1.3,2.8-2.9,2.8H14.9c-1.6,0-2.9-1.3-2.9-2.8V14.8c0-1.6,1.3-2.8,2.9-2.8h18.3c1.6,0,2.9,1.3,2.9,2.8V33.2z"/>
</g></symbol><symbol id="nc-icon-instagram-active" viewBox="0 0 48 48"><g >
<path fill="#f61212" d="M29.3,19.3h3.2c0.4,0,0.7-0.3,0.7-0.7v-3.2c0-0.4-0.3-0.7-0.7-0.7h-3.2c-0.4,0-0.7,0.3-0.7,0.7v3.2
	C28.7,19,29,19.3,29.3,19.3z"/>
<path fill="#f61212" d="M31.3,24c0,4-3.3,7.3-7.3,7.3c-4,0-7.3-3.3-7.3-7.3c0-0.7,0.1-1.3,0.3-1.9h-2.2v10.4c0,0.4,0.3,0.7,0.7,0.7
	h17.2c0.4,0,0.7-0.3,0.7-0.7V22.1h-2.2C31.2,22.7,31.3,23.4,31.3,24z"/>
<ellipse fill="#f61212" cx="24" cy="24" rx="4.6" ry="4.6"/>
<path fill="#f61212" d="M42,0H6C2.7,0,0,2.7,0,6v36c0,3.3,2.7,6,6,6h36c3.3,0,6-2.7,6-6V6C48,2.7,45.3,0,42,0z M36,33.2
	c0,1.6-1.3,2.8-2.9,2.8H14.9c-1.6,0-2.9-1.3-2.9-2.8V14.8c0-1.6,1.3-2.8,2.9-2.8h18.3c1.6,0,2.9,1.3,2.9,2.8V33.2z"/>
</g></symbol><symbol id="nc-icon-google" viewBox="0 0 48 48"><g >
<path fill="#a8a8ad" d="M20.2,26.9c-0.2,0-0.6,0-1.2,0.1c-0.6,0.1-1.3,0.2-1.9,0.4c-0.2,0.1-0.4,0.1-0.7,0.3
	c-0.3,0.1-0.6,0.3-0.9,0.5c-0.3,0.2-0.5,0.5-0.7,0.9c-0.2,0.4-0.3,0.8-0.3,1.3c0,1,0.5,1.9,1.4,2.5c0.9,0.7,2.2,1,3.8,1
	c1.4,0,2.5-0.3,3.3-0.9c0.7-0.6,1.1-1.3,1.1-2.2c0-0.7-0.3-1.4-0.8-1.9c-0.5-0.5-1.4-1.2-2.5-1.9C20.7,26.9,20.5,26.9,20.2,26.9z"/>
<path fill="#a8a8ad" d="M42,0H6C2.7,0,0,2.7,0,6v36c0,3.3,2.7,6,6,6h36c3.3,0,6-2.7,6-6V6C48,2.7,45.3,0,42,0z M23.6,14.4
	c0.2,0.2,0.5,0.5,0.7,0.8c0.2,0.3,0.4,0.7,0.6,1.1c0.1,0.4,0.2,0.9,0.2,1.5c0,1-0.3,1.9-0.7,2.5c-0.2,0.3-0.5,0.6-0.7,0.8
	c-0.3,0.3-0.6,0.5-0.9,0.8c-0.2,0.2-0.3,0.4-0.5,0.6c-0.2,0.2-0.3,0.5-0.3,0.8c0,0.3,0.1,0.6,0.3,0.8c0.2,0.2,0.3,0.4,0.5,0.5l1,0.8
	c0.6,0.5,1.2,1.1,1.7,1.7c0.5,0.6,0.7,1.4,0.7,2.4c0,1.4-0.6,2.7-1.9,3.8c-1.3,1.1-3.3,1.7-5.8,1.8c-2.1,0-3.7-0.5-4.8-1.3
	C12.5,33,12,32.1,12,31c0-0.5,0.2-1.1,0.5-1.8c0.3-0.7,0.9-1.2,1.8-1.8c1-0.5,2-0.9,3.1-1.1c1.1-0.2,2-0.2,2.7-0.3
	c-0.2-0.3-0.4-0.6-0.6-0.9c-0.2-0.3-0.3-0.7-0.3-1.1c0-0.3,0-0.5,0.1-0.6c0.1-0.2,0.1-0.3,0.2-0.5c-0.3,0-0.7,0.1-1,0.1
	c-1.6,0-2.8-0.5-3.7-1.5c-0.9-0.9-1.3-1.9-1.3-3.1c0-1.4,0.6-2.7,1.9-3.9c0.9-0.7,1.8-1.1,2.7-1.3c0.9-0.2,1.8-0.3,2.6-0.3h6.1
	l-1.9,1.1H23C23.2,14,23.4,14.2,23.6,14.4z M36,24.9h-3.4v3.4h-1.7v-3.4h-3.4v-1.7h3.4v-3.4h1.7v3.4H36V24.9z"/>
<path fill="#a8a8ad" d="M20.4,14.4c-0.5-0.3-1-0.5-1.6-0.5c-0.8,0-1.5,0.3-2.1,1c-0.5,0.6-0.7,1.4-0.7,2.2c0,1.1,0.3,2.2,1,3.3
	c0.3,0.5,0.7,1,1.2,1.4c0.5,0.4,1.1,0.6,1.7,0.6c0.8,0,1.5-0.3,2-0.8c0.3-0.4,0.4-0.8,0.5-1.1c0-0.4,0.1-0.7,0.1-1
	c0-1.2-0.3-2.3-0.9-3.5C21.3,15.2,20.9,14.7,20.4,14.4z"/>
</g></symbol><symbol id="nc-icon-google-active" viewBox="0 0 48 48"><g >
<path fill="#f61212" d="M20.2,26.9c-0.2,0-0.6,0-1.2,0.1c-0.6,0.1-1.3,0.2-1.9,0.4c-0.2,0.1-0.4,0.1-0.7,0.3
	c-0.3,0.1-0.6,0.3-0.9,0.5c-0.3,0.2-0.5,0.5-0.7,0.9c-0.2,0.4-0.3,0.8-0.3,1.3c0,1,0.5,1.9,1.4,2.5c0.9,0.7,2.2,1,3.8,1
	c1.4,0,2.5-0.3,3.3-0.9c0.7-0.6,1.1-1.3,1.1-2.2c0-0.7-0.3-1.4-0.8-1.9c-0.5-0.5-1.4-1.2-2.5-1.9C20.7,26.9,20.5,26.9,20.2,26.9z"/>
<path fill="#f61212" d="M42,0H6C2.7,0,0,2.7,0,6v36c0,3.3,2.7,6,6,6h36c3.3,0,6-2.7,6-6V6C48,2.7,45.3,0,42,0z M23.6,14.4
	c0.2,0.2,0.5,0.5,0.7,0.8c0.2,0.3,0.4,0.7,0.6,1.1c0.1,0.4,0.2,0.9,0.2,1.5c0,1-0.3,1.9-0.7,2.5c-0.2,0.3-0.5,0.6-0.7,0.8
	c-0.3,0.3-0.6,0.5-0.9,0.8c-0.2,0.2-0.3,0.4-0.5,0.6c-0.2,0.2-0.3,0.5-0.3,0.8c0,0.3,0.1,0.6,0.3,0.8c0.2,0.2,0.3,0.4,0.5,0.5l1,0.8
	c0.6,0.5,1.2,1.1,1.7,1.7c0.5,0.6,0.7,1.4,0.7,2.4c0,1.4-0.6,2.7-1.9,3.8c-1.3,1.1-3.3,1.7-5.8,1.8c-2.1,0-3.7-0.5-4.8-1.3
	C12.5,33,12,32.1,12,31c0-0.5,0.2-1.1,0.5-1.8c0.3-0.7,0.9-1.2,1.8-1.8c1-0.5,2-0.9,3.1-1.1c1.1-0.2,2-0.2,2.7-0.3
	c-0.2-0.3-0.4-0.6-0.6-0.9c-0.2-0.3-0.3-0.7-0.3-1.1c0-0.3,0-0.5,0.1-0.6c0.1-0.2,0.1-0.3,0.2-0.5c-0.3,0-0.7,0.1-1,0.1
	c-1.6,0-2.8-0.5-3.7-1.5c-0.9-0.9-1.3-1.9-1.3-3.1c0-1.4,0.6-2.7,1.9-3.9c0.9-0.7,1.8-1.1,2.7-1.3c0.9-0.2,1.8-0.3,2.6-0.3h6.1
	l-1.9,1.1H23C23.2,14,23.4,14.2,23.6,14.4z M36,24.9h-3.4v3.4h-1.7v-3.4h-3.4v-1.7h3.4v-3.4h1.7v3.4H36V24.9z"/>
<path fill="#f61212" d="M20.4,14.4c-0.5-0.3-1-0.5-1.6-0.5c-0.8,0-1.5,0.3-2.1,1c-0.5,0.6-0.7,1.4-0.7,2.2c0,1.1,0.3,2.2,1,3.3
	c0.3,0.5,0.7,1,1.2,1.4c0.5,0.4,1.1,0.6,1.7,0.6c0.8,0,1.5-0.3,2-0.8c0.3-0.4,0.4-0.8,0.5-1.1c0-0.4,0.1-0.7,0.1-1
	c0-1.2-0.3-2.3-0.9-3.5C21.3,15.2,20.9,14.7,20.4,14.4z"/>
</g></symbol><symbol id="nc-icon-facebook" viewBox="0 0 48 48"><g >
<path fill="#a8a8ad" d="M42,0H6C2.7,0,0,2.7,0,6v36c0,3.3,2.7,6,6,6h36c3.3,0,6-2.7,6-6V6C48,2.7,45.3,0,42,0z M30.2,16L28,16
	c-1.8,0-2.1,0.8-2.1,2.1v2.7h4.2l-0.6,4.3h-3.7V36h-4.4V25.1h-3.7v-4.3h3.7v-3.1c0-3.7,2.2-5.6,5.5-5.6c1.6,0,2.9,0.1,3.3,0.2V16z"/>
</g></symbol><symbol id="nc-icon-facebook-active" viewBox="0 0 48 48"><g >
<path fill="#f61212" d="M42,0H6C2.7,0,0,2.7,0,6v36c0,3.3,2.7,6,6,6h36c3.3,0,6-2.7,6-6V6C48,2.7,45.3,0,42,0z M30.2,16L28,16
	c-1.8,0-2.1,0.8-2.1,2.1v2.7h4.2l-0.6,4.3h-3.7V36h-4.4V25.1h-3.7v-4.3h3.7v-3.1c0-3.7,2.2-5.6,5.5-5.6c1.6,0,2.9,0.1,3.3,0.2V16z"/>
</g></symbol><symbol id="nc-icon-media-7" viewBox="0 0 48 48"><g >
<path fill="#a8a8ad" d="M24,0C10.7,0,0,10.7,0,24c0,13.3,10.7,24,24,24s24-10.7,24-24C48,10.7,37.3,0,24,0z M36,24.9
	c0,1.9-0.2,3.9-0.2,3.9s-0.2,1.7-1,2.4c-0.9,1-1.9,1-2.4,1C29,32.4,24,32.4,24,32.4s-6.2-0.1-8.2-0.2c-0.5-0.1-1.7-0.1-2.6-1
	c-0.7-0.7-1-2.4-1-2.4S12,26.8,12,24.9v-1.8c0-1.9,0.2-3.9,0.2-3.9s0.2-1.7,1-2.4c0.9-1,1.9-1,2.4-1c3.4-0.2,8.4-0.2,8.4-0.2h0
	c0,0,5,0,8.4,0.2c0.5,0.1,1.5,0.1,2.4,1c0.7,0.7,1,2.4,1,2.4s0.2,1.9,0.2,3.9V24.9z"/>
<polygon fill="#a8a8ad" points="21.5,27.1 28,23.8 21.5,20.4 "/>
</g></symbol><symbol id="nc-icon-media-7-active" viewBox="0 0 48 48"><g >
<path fill="#f61212" d="M24,0C10.7,0,0,10.7,0,24c0,13.3,10.7,24,24,24s24-10.7,24-24C48,10.7,37.3,0,24,0z M36,24.9
	c0,1.9-0.2,3.9-0.2,3.9s-0.2,1.7-1,2.4c-0.9,1-1.9,1-2.4,1C29,32.4,24,32.4,24,32.4s-6.2-0.1-8.2-0.2c-0.5-0.1-1.7-0.1-2.6-1
	c-0.7-0.7-1-2.4-1-2.4S12,26.8,12,24.9v-1.8c0-1.9,0.2-3.9,0.2-3.9s0.2-1.7,1-2.4c0.9-1,1.9-1,2.4-1c3.4-0.2,8.4-0.2,8.4-0.2h0
	c0,0,5,0,8.4,0.2c0.5,0.1,1.5,0.1,2.4,1c0.7,0.7,1,2.4,1,2.4s0.2,1.9,0.2,3.9V24.9z"/>
<polygon fill="#f61212" points="21.5,27.1 28,23.8 21.5,20.4 "/>
</g></symbol><symbol id="nc-icon-media-8" viewBox="0 0 48 48"><g >
<path fill="#a8a8ad" d="M24,0C10.7,0,0,10.7,0,24c0,13.3,10.7,24,24,24s24-10.7,24-24C48,10.7,37.3,0,24,0z M33.5,19.1
	c0,0.2,0,0.4,0,0.6c0,6.5-5,14-14,14c-2.8,0-5.4-0.8-7.5-2.2c0.4,0,0.8,0.1,1.2,0.1c2.3,0,4.4-0.8,6.1-2.1c-2.2,0-4-1.5-4.6-3.4
	c0.3,0.1,0.6,0.1,0.9,0.1c0.4,0,0.9-0.1,1.3-0.2c-2.3-0.5-3.9-2.4-3.9-4.8c0,0,0,0,0-0.1c0.7,0.4,1.4,0.6,2.2,0.6
	c-1.3-0.9-2.2-2.4-2.2-4.1c0-0.9,0.2-1.7,0.7-2.5c2.4,3,6.1,4.9,10.1,5.1c-0.1-0.4-0.1-0.7-0.1-1.1c0-2.7,2.2-4.9,4.9-4.9
	c1.4,0,2.7,0.6,3.6,1.6c1.1-0.2,2.2-0.6,3.1-1.2c-0.4,1.1-1.1,2.1-2.2,2.7c1-0.1,1.9-0.4,2.8-0.8C35.3,17.5,34.5,18.4,33.5,19.1z"/>
</g></symbol><symbol id="nc-icon-media-8-active" viewBox="0 0 48 48"><g >
<path fill="#f61212" d="M24,0C10.7,0,0,10.7,0,24c0,13.3,10.7,24,24,24s24-10.7,24-24C48,10.7,37.3,0,24,0z M33.5,19.1
	c0,0.2,0,0.4,0,0.6c0,6.5-5,14-14,14c-2.8,0-5.4-0.8-7.5-2.2c0.4,0,0.8,0.1,1.2,0.1c2.3,0,4.4-0.8,6.1-2.1c-2.2,0-4-1.5-4.6-3.4
	c0.3,0.1,0.6,0.1,0.9,0.1c0.4,0,0.9-0.1,1.3-0.2c-2.3-0.5-3.9-2.4-3.9-4.8c0,0,0,0,0-0.1c0.7,0.4,1.4,0.6,2.2,0.6
	c-1.3-0.9-2.2-2.4-2.2-4.1c0-0.9,0.2-1.7,0.7-2.5c2.4,3,6.1,4.9,10.1,5.1c-0.1-0.4-0.1-0.7-0.1-1.1c0-2.7,2.2-4.9,4.9-4.9
	c1.4,0,2.7,0.6,3.6,1.6c1.1-0.2,2.2-0.6,3.1-1.2c-0.4,1.1-1.1,2.1-2.2,2.7c1-0.1,1.9-0.4,2.8-0.8C35.3,17.5,34.5,18.4,33.5,19.1z"/>
</g></symbol><symbol id="nc-icon-linkedin-9" viewBox="0 0 48 48"><g >
<path fill="#a8a8ad" d="M24,0C10.7,0,0,10.7,0,24c0,13.3,10.7,24,24,24s24-10.7,24-24C48,10.7,37.3,0,24,0z M17.4,36h-5V20h5V36z
	 M14.9,17.8c-1.6,0-2.9-1.3-2.9-2.9c0-1.6,1.3-2.9,2.9-2.9c1.6,0,2.9,1.3,2.9,2.9C17.8,16.5,16.5,17.8,14.9,17.8z M36,36h-5v-7.8
	c0-1.9,0-4.2-2.6-4.2c-2.6,0-3,2-3,4.1V36h-5V20h4.8v2.2h0.1c0.7-1.3,2.3-2.6,4.7-2.6c5,0,6,3.3,6,7.6V36z"/>
</g></symbol><symbol id="nc-icon-linkedin-9-active" viewBox="0 0 48 48"><g >
<path fill="#f61212" d="M24,0C10.7,0,0,10.7,0,24c0,13.3,10.7,24,24,24s24-10.7,24-24C48,10.7,37.3,0,24,0z M17.4,36h-5V20h5V36z
	 M14.9,17.8c-1.6,0-2.9-1.3-2.9-2.9c0-1.6,1.3-2.9,2.9-2.9c1.6,0,2.9,1.3,2.9,2.9C17.8,16.5,16.5,17.8,14.9,17.8z M36,36h-5v-7.8
	c0-1.9,0-4.2-2.6-4.2c-2.6,0-3,2-3,4.1V36h-5V20h4.8v2.2h0.1c0.7-1.3,2.3-2.6,4.7-2.6c5,0,6,3.3,6,7.6V36z"/>
</g></symbol><symbol id="nc-icon-instagram-10" viewBox="0 0 48 48"><g >
<ellipse fill="#a8a8ad" cx="24" cy="24" rx="4.6" ry="4.6"/>
<path fill="#a8a8ad" d="M29.3,19.3h3.2c0.4,0,0.7-0.3,0.7-0.7v-3.2c0-0.4-0.3-0.7-0.7-0.7h-3.2c-0.4,0-0.7,0.3-0.7,0.7v3.2
	C28.7,19,29,19.3,29.3,19.3z"/>
<path fill="#a8a8ad" d="M24,0C10.7,0,0,10.7,0,24c0,13.3,10.7,24,24,24s24-10.7,24-24C48,10.7,37.3,0,24,0z M36,33.2
	c0,1.6-1.3,2.8-2.9,2.8H14.9c-1.6,0-2.9-1.3-2.9-2.8V14.8c0-1.6,1.3-2.8,2.9-2.8h18.3c1.6,0,2.9,1.3,2.9,2.8V33.2z"/>
<path fill="#a8a8ad" d="M31.3,24c0,4-3.3,7.3-7.3,7.3c-4,0-7.3-3.3-7.3-7.3c0-0.7,0.1-1.3,0.3-1.9h-2.2v10.4c0,0.4,0.3,0.7,0.7,0.7
	h17.2c0.4,0,0.7-0.3,0.7-0.7V22.1h-2.2C31.2,22.7,31.3,23.4,31.3,24z"/>
</g></symbol><symbol id="nc-icon-instagram-10-active" viewBox="0 0 48 48"><g >
<ellipse fill="#f61212" cx="24" cy="24" rx="4.6" ry="4.6"/>
<path fill="#f61212" d="M29.3,19.3h3.2c0.4,0,0.7-0.3,0.7-0.7v-3.2c0-0.4-0.3-0.7-0.7-0.7h-3.2c-0.4,0-0.7,0.3-0.7,0.7v3.2
	C28.7,19,29,19.3,29.3,19.3z"/>
<path fill="#f61212" d="M24,0C10.7,0,0,10.7,0,24c0,13.3,10.7,24,24,24s24-10.7,24-24C48,10.7,37.3,0,24,0z M36,33.2
	c0,1.6-1.3,2.8-2.9,2.8H14.9c-1.6,0-2.9-1.3-2.9-2.8V14.8c0-1.6,1.3-2.8,2.9-2.8h18.3c1.6,0,2.9,1.3,2.9,2.8V33.2z"/>
<path fill="#f61212" d="M31.3,24c0,4-3.3,7.3-7.3,7.3c-4,0-7.3-3.3-7.3-7.3c0-0.7,0.1-1.3,0.3-1.9h-2.2v10.4c0,0.4,0.3,0.7,0.7,0.7
	h17.2c0.4,0,0.7-0.3,0.7-0.7V22.1h-2.2C31.2,22.7,31.3,23.4,31.3,24z"/>
</g></symbol><symbol id="nc-icon-google-11" viewBox="0 0 48 48"><g >
<path fill="#a8a8ad" d="M20.4,14.4c-0.5-0.3-1-0.5-1.6-0.5c-0.8,0-1.5,0.3-2.1,1c-0.5,0.6-0.7,1.4-0.7,2.2c0,1.1,0.3,2.2,1,3.3
	c0.3,0.5,0.7,1,1.2,1.4c0.5,0.4,1.1,0.6,1.7,0.6c0.8,0,1.5-0.3,2-0.8c0.3-0.4,0.4-0.8,0.5-1.1c0-0.4,0.1-0.7,0.1-1
	c0-1.2-0.3-2.3-0.9-3.5C21.3,15.2,20.9,14.7,20.4,14.4z"/>
<path fill="#a8a8ad" d="M20.2,26.9c-0.2,0-0.6,0-1.2,0.1c-0.6,0.1-1.3,0.2-1.9,0.4c-0.2,0.1-0.4,0.1-0.7,0.3
	c-0.3,0.1-0.6,0.3-0.9,0.5c-0.3,0.2-0.5,0.5-0.7,0.9c-0.2,0.4-0.3,0.8-0.3,1.3c0,1,0.5,1.9,1.4,2.5c0.9,0.7,2.2,1,3.8,1
	c1.4,0,2.5-0.3,3.3-0.9c0.7-0.6,1.1-1.3,1.1-2.2c0-0.7-0.3-1.4-0.8-1.9c-0.5-0.5-1.4-1.2-2.5-1.9C20.7,26.9,20.5,26.9,20.2,26.9z"/>
<path fill="#a8a8ad" d="M24,0C10.7,0,0,10.7,0,24c0,13.3,10.7,24,24,24s24-10.7,24-24C48,10.7,37.3,0,24,0z M23.6,14.4
	c0.2,0.2,0.5,0.5,0.7,0.8c0.2,0.3,0.4,0.7,0.6,1.1c0.1,0.4,0.2,0.9,0.2,1.5c0,1-0.3,1.9-0.7,2.5c-0.2,0.3-0.5,0.6-0.7,0.8
	c-0.3,0.3-0.6,0.5-0.9,0.8c-0.2,0.2-0.3,0.4-0.5,0.6c-0.2,0.2-0.3,0.5-0.3,0.8c0,0.3,0.1,0.6,0.3,0.8c0.2,0.2,0.3,0.4,0.5,0.5l1,0.8
	c0.6,0.5,1.2,1.1,1.7,1.7c0.5,0.6,0.7,1.4,0.7,2.4c0,1.4-0.6,2.7-1.9,3.8c-1.3,1.1-3.3,1.7-5.8,1.8c-2.1,0-3.7-0.5-4.8-1.3
	C12.5,33,12,32.1,12,31c0-0.5,0.2-1.1,0.5-1.8c0.3-0.7,0.9-1.2,1.8-1.8c1-0.5,2-0.9,3.1-1.1c1.1-0.2,2-0.2,2.7-0.3
	c-0.2-0.3-0.4-0.6-0.6-0.9c-0.2-0.3-0.3-0.7-0.3-1.1c0-0.3,0-0.5,0.1-0.6c0.1-0.2,0.1-0.3,0.2-0.5c-0.3,0-0.7,0.1-1,0.1
	c-1.6,0-2.8-0.5-3.7-1.5c-0.9-0.9-1.3-1.9-1.3-3.1c0-1.4,0.6-2.7,1.9-3.9c0.9-0.7,1.8-1.1,2.7-1.3c0.9-0.2,1.8-0.3,2.6-0.3h6.1
	l-1.9,1.1H23C23.2,14,23.4,14.2,23.6,14.4z M36,24.9h-3.4v3.4h-1.7v-3.4h-3.4v-1.7h3.4v-3.4h1.7v3.4H36V24.9z"/>
</g></symbol><symbol id="nc-icon-google-11-active" viewBox="0 0 48 48"><g >
<path fill="#f61212" d="M20.4,14.4c-0.5-0.3-1-0.5-1.6-0.5c-0.8,0-1.5,0.3-2.1,1c-0.5,0.6-0.7,1.4-0.7,2.2c0,1.1,0.3,2.2,1,3.3
	c0.3,0.5,0.7,1,1.2,1.4c0.5,0.4,1.1,0.6,1.7,0.6c0.8,0,1.5-0.3,2-0.8c0.3-0.4,0.4-0.8,0.5-1.1c0-0.4,0.1-0.7,0.1-1
	c0-1.2-0.3-2.3-0.9-3.5C21.3,15.2,20.9,14.7,20.4,14.4z"/>
<path fill="#f61212" d="M20.2,26.9c-0.2,0-0.6,0-1.2,0.1c-0.6,0.1-1.3,0.2-1.9,0.4c-0.2,0.1-0.4,0.1-0.7,0.3
	c-0.3,0.1-0.6,0.3-0.9,0.5c-0.3,0.2-0.5,0.5-0.7,0.9c-0.2,0.4-0.3,0.8-0.3,1.3c0,1,0.5,1.9,1.4,2.5c0.9,0.7,2.2,1,3.8,1
	c1.4,0,2.5-0.3,3.3-0.9c0.7-0.6,1.1-1.3,1.1-2.2c0-0.7-0.3-1.4-0.8-1.9c-0.5-0.5-1.4-1.2-2.5-1.9C20.7,26.9,20.5,26.9,20.2,26.9z"/>
<path fill="#f61212" d="M24,0C10.7,0,0,10.7,0,24c0,13.3,10.7,24,24,24s24-10.7,24-24C48,10.7,37.3,0,24,0z M23.6,14.4
	c0.2,0.2,0.5,0.5,0.7,0.8c0.2,0.3,0.4,0.7,0.6,1.1c0.1,0.4,0.2,0.9,0.2,1.5c0,1-0.3,1.9-0.7,2.5c-0.2,0.3-0.5,0.6-0.7,0.8
	c-0.3,0.3-0.6,0.5-0.9,0.8c-0.2,0.2-0.3,0.4-0.5,0.6c-0.2,0.2-0.3,0.5-0.3,0.8c0,0.3,0.1,0.6,0.3,0.8c0.2,0.2,0.3,0.4,0.5,0.5l1,0.8
	c0.6,0.5,1.2,1.1,1.7,1.7c0.5,0.6,0.7,1.4,0.7,2.4c0,1.4-0.6,2.7-1.9,3.8c-1.3,1.1-3.3,1.7-5.8,1.8c-2.1,0-3.7-0.5-4.8-1.3
	C12.5,33,12,32.1,12,31c0-0.5,0.2-1.1,0.5-1.8c0.3-0.7,0.9-1.2,1.8-1.8c1-0.5,2-0.9,3.1-1.1c1.1-0.2,2-0.2,2.7-0.3
	c-0.2-0.3-0.4-0.6-0.6-0.9c-0.2-0.3-0.3-0.7-0.3-1.1c0-0.3,0-0.5,0.1-0.6c0.1-0.2,0.1-0.3,0.2-0.5c-0.3,0-0.7,0.1-1,0.1
	c-1.6,0-2.8-0.5-3.7-1.5c-0.9-0.9-1.3-1.9-1.3-3.1c0-1.4,0.6-2.7,1.9-3.9c0.9-0.7,1.8-1.1,2.7-1.3c0.9-0.2,1.8-0.3,2.6-0.3h6.1
	l-1.9,1.1H23C23.2,14,23.4,14.2,23.6,14.4z M36,24.9h-3.4v3.4h-1.7v-3.4h-3.4v-1.7h3.4v-3.4h1.7v3.4H36V24.9z"/>
</g></symbol><symbol id="nc-icon-facebook-12" viewBox="0 0 48 48"><g >
<path fill="#a8a8ad" d="M24,0C10.7,0,0,10.7,0,24c0,13.3,10.7,24,24,24s24-10.7,24-24C48,10.7,37.3,0,24,0z M30.2,16L28,16
	c-1.8,0-2.1,0.8-2.1,2.1v2.7h4.2l-0.6,4.3h-3.7V36h-4.4V25.1h-3.7v-4.3h3.7v-3.1c0-3.7,2.2-5.6,5.5-5.6c1.6,0,2.9,0.1,3.3,0.2V16z"/>
</g></symbol><symbol id="nc-icon-facebook-12-active" viewBox="0 0 48 48"><g >
<path fill="#f61212" d="M24,0C10.7,0,0,10.7,0,24c0,13.3,10.7,24,24,24s24-10.7,24-24C48,10.7,37.3,0,24,0z M30.2,16L28,16
	c-1.8,0-2.1,0.8-2.1,2.1v2.7h4.2l-0.6,4.3h-3.7V36h-4.4V25.1h-3.7v-4.3h3.7v-3.1c0-3.7,2.2-5.6,5.5-5.6c1.6,0,2.9,0.1,3.3,0.2V16z"/>
</g></symbol><symbol id="nc-icon-media-13" viewBox="0 0 48 48"><g >
<path fill="#a8a8ad" d="M47.5,14.4c0,0-0.5-3.3-1.9-4.8c-1.8-1.9-3.9-1.9-4.8-2C34.1,7.1,24,7.1,24,7.1h0c0,0-10.1,0-16.8,0.5
	c-0.9,0.1-3,0.1-4.8,2c-1.4,1.5-1.9,4.8-1.9,4.8S0,18.3,0,22.2v3.6c0,3.9,0.5,7.8,0.5,7.8s0.5,3.3,1.9,4.8c1.8,1.9,4.2,1.9,5.3,2.1
	c3.8,0.4,16.3,0.5,16.3,0.5s10.1,0,16.8-0.5c0.9-0.1,3-0.1,4.8-2c1.4-1.5,1.9-4.8,1.9-4.8s0.5-3.9,0.5-7.8v-3.6
	C48,18.3,47.5,14.4,47.5,14.4z M19,30.2l0-13.5l13,6.8L19,30.2z"/>
</g></symbol><symbol id="nc-icon-media-13-active" viewBox="0 0 48 48"><g >
<path fill="#f61212" d="M47.5,14.4c0,0-0.5-3.3-1.9-4.8c-1.8-1.9-3.9-1.9-4.8-2C34.1,7.1,24,7.1,24,7.1h0c0,0-10.1,0-16.8,0.5
	c-0.9,0.1-3,0.1-4.8,2c-1.4,1.5-1.9,4.8-1.9,4.8S0,18.3,0,22.2v3.6c0,3.9,0.5,7.8,0.5,7.8s0.5,3.3,1.9,4.8c1.8,1.9,4.2,1.9,5.3,2.1
	c3.8,0.4,16.3,0.5,16.3,0.5s10.1,0,16.8-0.5c0.9-0.1,3-0.1,4.8-2c1.4-1.5,1.9-4.8,1.9-4.8s0.5-3.9,0.5-7.8v-3.6
	C48,18.3,47.5,14.4,47.5,14.4z M19,30.2l0-13.5l13,6.8L19,30.2z"/>
</g></symbol><symbol id="nc-icon-media-14" viewBox="0 0 48 48"><g >
<path fill="#a8a8ad" d="M48,9.1c-1.8,0.8-3.7,1.3-5.7,1.6c2-1.2,3.6-3.1,4.3-5.4c-1.9,1.1-4,1.9-6.3,2.4c-1.8-1.9-4.4-3.1-7.2-3.1
	c-5.4,0-9.8,4.4-9.8,9.8c0,0.8,0.1,1.5,0.3,2.2C15.5,16.2,8.2,12.3,3.3,6.3C2.5,7.8,2,9.4,2,11.2c0,3.4,1.7,6.4,4.4,8.2
	c-1.6-0.1-3.1-0.5-4.5-1.2c0,0,0,0.1,0,0.1c0,4.8,3.4,8.8,7.9,9.7c-0.8,0.2-1.7,0.3-2.6,0.3c-0.6,0-1.3-0.1-1.9-0.2
	c1.3,3.9,4.9,6.8,9.2,6.8c-3.4,2.6-7.6,4.2-12.2,4.2c-0.8,0-1.6,0-2.3-0.1c4.4,2.8,9.5,4.4,15.1,4.4c18.1,0,28-15,28-28
	c0-0.4,0-0.9,0-1.3C45,12.8,46.7,11.1,48,9.1z"/>
</g></symbol><symbol id="nc-icon-media-14-active" viewBox="0 0 48 48"><g >
<path fill="#f61212" d="M48,9.1c-1.8,0.8-3.7,1.3-5.7,1.6c2-1.2,3.6-3.1,4.3-5.4c-1.9,1.1-4,1.9-6.3,2.4c-1.8-1.9-4.4-3.1-7.2-3.1
	c-5.4,0-9.8,4.4-9.8,9.8c0,0.8,0.1,1.5,0.3,2.2C15.5,16.2,8.2,12.3,3.3,6.3C2.5,7.8,2,9.4,2,11.2c0,3.4,1.7,6.4,4.4,8.2
	c-1.6-0.1-3.1-0.5-4.5-1.2c0,0,0,0.1,0,0.1c0,4.8,3.4,8.8,7.9,9.7c-0.8,0.2-1.7,0.3-2.6,0.3c-0.6,0-1.3-0.1-1.9-0.2
	c1.3,3.9,4.9,6.8,9.2,6.8c-3.4,2.6-7.6,4.2-12.2,4.2c-0.8,0-1.6,0-2.3-0.1c4.4,2.8,9.5,4.4,15.1,4.4c18.1,0,28-15,28-28
	c0-0.4,0-0.9,0-1.3C45,12.8,46.7,11.1,48,9.1z"/>
</g></symbol><symbol id="nc-icon-linkedin-15" viewBox="0 0 48 48"><g >
<path fill="#a8a8ad" d="M46,0H2C0.9,0,0,0.9,0,2v44c0,1.1,0.9,2,2,2h44c1.1,0,2-0.9,2-2V2C48,0.9,47.1,0,46,0z M14.2,40.9H7.1V18
	h7.1V40.9z M10.7,14.9c-2.3,0-4.1-1.8-4.1-4.1c0-2.3,1.8-4.1,4.1-4.1c2.3,0,4.1,1.8,4.1,4.1C14.8,13,13,14.9,10.7,14.9z M40.9,40.9
	h-7.1V29.8c0-2.7,0-6.1-3.7-6.1c-3.7,0-4.3,2.9-4.3,5.9v11.3h-7.1V18h6.8v3.1h0.1c0.9-1.8,3.3-3.7,6.7-3.7c7.2,0,8.5,4.7,8.5,10.9
	V40.9z"/>
</g></symbol><symbol id="nc-icon-linkedin-15-active" viewBox="0 0 48 48"><g >
<path fill="#f61212" d="M46,0H2C0.9,0,0,0.9,0,2v44c0,1.1,0.9,2,2,2h44c1.1,0,2-0.9,2-2V2C48,0.9,47.1,0,46,0z M14.2,40.9H7.1V18
	h7.1V40.9z M10.7,14.9c-2.3,0-4.1-1.8-4.1-4.1c0-2.3,1.8-4.1,4.1-4.1c2.3,0,4.1,1.8,4.1,4.1C14.8,13,13,14.9,10.7,14.9z M40.9,40.9
	h-7.1V29.8c0-2.7,0-6.1-3.7-6.1c-3.7,0-4.3,2.9-4.3,5.9v11.3h-7.1V18h6.8v3.1h0.1c0.9-1.8,3.3-3.7,6.7-3.7c7.2,0,8.5,4.7,8.5,10.9
	V40.9z"/>
</g></symbol><symbol id="nc-icon-instagram-16" viewBox="0 0 48 48"><g >
<path fill="#a8a8ad" d="M42.3,0H5.7C2.6,0,0,2.5,0,5.7v36.6C0,45.5,2.6,48,5.7,48h36.6c3.2,0,5.7-2.5,5.7-5.7V5.7
	C48,2.5,45.4,0,42.3,0z M36,6h4c1.1,0,2,0.9,2,2v4c0,1.1-0.9,2-2,2h-4c-1.1,0-2-0.9-2-2V8C34,6.9,34.9,6,36,6z M24.1,14.8
	c5.1,0,9.2,4.1,9.2,9.2c0,5.1-4.1,9.2-9.2,9.2c-5.1,0-9.2-4.1-9.2-9.2C14.8,19,19,14.8,24.1,14.8z M40,42H8c-1.1,0-2-0.9-2-2V20h4
	c-0.6,2.2-0.7,4.8-0.2,7.2c1.2,5.6,5.7,10,11.3,11.1c9.3,1.8,17.5-5.3,17.5-14.3c0-1.3-0.3-2.8-0.7-4.1h4v20C42,41.1,41.1,42,40,42z
	"/>
</g></symbol><symbol id="nc-icon-instagram-16-active" viewBox="0 0 48 48"><g >
<path fill="#f61212" d="M42.3,0H5.7C2.6,0,0,2.5,0,5.7v36.6C0,45.5,2.6,48,5.7,48h36.6c3.2,0,5.7-2.5,5.7-5.7V5.7
	C48,2.5,45.4,0,42.3,0z M36,6h4c1.1,0,2,0.9,2,2v4c0,1.1-0.9,2-2,2h-4c-1.1,0-2-0.9-2-2V8C34,6.9,34.9,6,36,6z M24.1,14.8
	c5.1,0,9.2,4.1,9.2,9.2c0,5.1-4.1,9.2-9.2,9.2c-5.1,0-9.2-4.1-9.2-9.2C14.8,19,19,14.8,24.1,14.8z M40,42H8c-1.1,0-2-0.9-2-2V20h4
	c-0.6,2.2-0.7,4.8-0.2,7.2c1.2,5.6,5.7,10,11.3,11.1c9.3,1.8,17.5-5.3,17.5-14.3c0-1.3-0.3-2.8-0.7-4.1h4v20C42,41.1,41.1,42,40,42z
	"/>
</g></symbol><symbol id="nc-icon-google-17" viewBox="0 0 48 48"><g >
<path fill="#a8a8ad" d="M22,3.8c0.4,0.2,0.8,0.6,1.3,1c0.5,0.5,0.9,1,1.3,1.7c0.4,0.6,0.8,1.4,1.1,2.2c0.3,0.9,0.4,1.9,0.4,3
	c0,2.1-0.5,3.8-1.4,5c-0.5,0.6-0.9,1.2-1.4,1.7c-0.6,0.5-1.2,1-1.8,1.6c-0.4,0.4-0.7,0.8-1,1.2c-0.4,0.5-0.5,1-0.5,1.7
	c0,0.6,0.2,1.1,0.6,1.5c0.3,0.4,0.6,0.7,0.9,1l2.1,1.6c1.3,1,2.4,2.1,3.4,3.3c0.9,1.2,1.4,2.9,1.4,4.9c0,2.8-1.3,5.3-3.9,7.5
	c-2.7,2.3-6.6,3.4-11.7,3.5c-4.2,0-7.4-0.9-9.5-2.6C1.1,42.1,0,40.2,0,37.9c0-1.1,0.3-2.3,1-3.6c0.7-1.3,1.9-2.5,3.6-3.5
	c2-1.1,4-1.8,6.2-2.2c2.1-0.3,3.9-0.5,5.3-0.5c-0.4-0.6-0.8-1.1-1.2-1.8c-0.4-0.6-0.6-1.3-0.6-2.2c0-0.5,0.1-0.9,0.2-1.3
	c0.1-0.4,0.3-0.7,0.4-1c-0.7,0.1-1.3,0.1-1.9,0.1c-3.2,0-5.7-1-7.4-2.9C3.9,17.2,3,15.1,3,12.8c0-2.9,1.3-5.5,3.8-7.8
	c1.7-1.4,3.5-2.3,5.4-2.7c1.8-0.4,3.6-0.5,5.2-0.5h12.1l-3.7,2.1H22z M24.3,37.5c0-1.5-0.5-2.8-1.5-3.9c-1.1-1-2.7-2.3-5-3.9
	c-0.4,0-0.8-0.1-1.4-0.1c-0.3,0-1.1,0-2.4,0.1c-1.3,0.2-2.5,0.4-3.9,0.8c-0.3,0.1-0.7,0.3-1.3,0.5c-0.6,0.2-1.1,0.6-1.7,1.1
	c-0.6,0.5-1,1.1-1.4,1.8c-0.4,0.7-0.7,1.6-0.7,2.7c0,2.1,1,3.8,2.9,5.1c1.8,1.3,4.3,2,7.5,2.1c2.9,0,5-0.6,6.5-1.8
	C23.6,40.8,24.3,39.4,24.3,37.5z M15.9,20.4c1.6-0.1,2.9-0.6,4-1.7c0.5-0.7,0.8-1.5,1-2.3c0.1-0.8,0.1-1.4,0.1-2
	c0-2.3-0.6-4.6-1.8-7c-0.6-1.1-1.3-2-2.3-2.7c-1-0.7-2.1-1-3.3-1.1c-1.6,0-3,0.7-4.1,1.9C8.6,6.9,8.1,8.3,8.2,9.9
	c0,2.1,0.6,4.3,1.9,6.6c0.6,1.1,1.4,2,2.4,2.7C13.5,20,14.6,20.4,15.9,20.4z"/>
<path fill="#a8a8ad" d="M48,22h-6v-6h-4v6h-6v4h6v6h4v-6h6V22z"/>
</g></symbol><symbol id="nc-icon-google-17-active" viewBox="0 0 48 48"><g >
<path fill="#f61212" d="M22,3.8c0.4,0.2,0.8,0.6,1.3,1c0.5,0.5,0.9,1,1.3,1.7c0.4,0.6,0.8,1.4,1.1,2.2c0.3,0.9,0.4,1.9,0.4,3
	c0,2.1-0.5,3.8-1.4,5c-0.5,0.6-0.9,1.2-1.4,1.7c-0.6,0.5-1.2,1-1.8,1.6c-0.4,0.4-0.7,0.8-1,1.2c-0.4,0.5-0.5,1-0.5,1.7
	c0,0.6,0.2,1.1,0.6,1.5c0.3,0.4,0.6,0.7,0.9,1l2.1,1.6c1.3,1,2.4,2.1,3.4,3.3c0.9,1.2,1.4,2.9,1.4,4.9c0,2.8-1.3,5.3-3.9,7.5
	c-2.7,2.3-6.6,3.4-11.7,3.5c-4.2,0-7.4-0.9-9.5-2.6C1.1,42.1,0,40.2,0,37.9c0-1.1,0.3-2.3,1-3.6c0.7-1.3,1.9-2.5,3.6-3.5
	c2-1.1,4-1.8,6.2-2.2c2.1-0.3,3.9-0.5,5.3-0.5c-0.4-0.6-0.8-1.1-1.2-1.8c-0.4-0.6-0.6-1.3-0.6-2.2c0-0.5,0.1-0.9,0.2-1.3
	c0.1-0.4,0.3-0.7,0.4-1c-0.7,0.1-1.3,0.1-1.9,0.1c-3.2,0-5.7-1-7.4-2.9C3.9,17.2,3,15.1,3,12.8c0-2.9,1.3-5.5,3.8-7.8
	c1.7-1.4,3.5-2.3,5.4-2.7c1.8-0.4,3.6-0.5,5.2-0.5h12.1l-3.7,2.1H22z M24.3,37.5c0-1.5-0.5-2.8-1.5-3.9c-1.1-1-2.7-2.3-5-3.9
	c-0.4,0-0.8-0.1-1.4-0.1c-0.3,0-1.1,0-2.4,0.1c-1.3,0.2-2.5,0.4-3.9,0.8c-0.3,0.1-0.7,0.3-1.3,0.5c-0.6,0.2-1.1,0.6-1.7,1.1
	c-0.6,0.5-1,1.1-1.4,1.8c-0.4,0.7-0.7,1.6-0.7,2.7c0,2.1,1,3.8,2.9,5.1c1.8,1.3,4.3,2,7.5,2.1c2.9,0,5-0.6,6.5-1.8
	C23.6,40.8,24.3,39.4,24.3,37.5z M15.9,20.4c1.6-0.1,2.9-0.6,4-1.7c0.5-0.7,0.8-1.5,1-2.3c0.1-0.8,0.1-1.4,0.1-2
	c0-2.3-0.6-4.6-1.8-7c-0.6-1.1-1.3-2-2.3-2.7c-1-0.7-2.1-1-3.3-1.1c-1.6,0-3,0.7-4.1,1.9C8.6,6.9,8.1,8.3,8.2,9.9
	c0,2.1,0.6,4.3,1.9,6.6c0.6,1.1,1.4,2,2.4,2.7C13.5,20,14.6,20.4,15.9,20.4z"/>
<path fill="#f61212" d="M48,22h-6v-6h-4v6h-6v4h6v6h4v-6h6V22z"/>
</g></symbol><symbol id="nc-icon-facebook-18" viewBox="0 0 48 48"><g >
<path fill="#a8a8ad" d="M46,0H2C0.9,0,0,0.9,0,2v44c0,1.1,0.9,2,2,2h23.6V29.4h-6.3v-7.2h6.3v-5.3
	c0-6.2,3.8-9.6,9.3-9.6c2.6,0,4.9,0.2,5.6,0.3V14l-3.8,0c-3,0-3.6,1.4-3.6,3.5v4.6h7.2l-0.9,7.2h-6.2V48H46c1.1,0,2-0.9,2-2V2
	C48,0.9,47.1,0,46,0z"/>
</g></symbol><symbol id="nc-icon-facebook-18-active" viewBox="0 0 48 48"><g >
<path fill="#f61212" d="M46,0H2C0.9,0,0,0.9,0,2v44c0,1.1,0.9,2,2,2h23.6V29.4h-6.3v-7.2h6.3v-5.3
	c0-6.2,3.8-9.6,9.3-9.6c2.6,0,4.9,0.2,5.6,0.3V14l-3.8,0c-3,0-3.6,1.4-3.6,3.5v4.6h7.2l-0.9,7.2h-6.2V48H46c1.1,0,2-0.9,2-2V2
	C48,0.9,47.1,0,46,0z"/>
</g></symbol></svg>