<?xml version="1.0" encoding="utf-8"?>
<!-- Generator: Adobe Illustrator 19.2.1, SVG Export Plug-In . SVG Version: 6.00 Build 0)  -->
<svg version="1.1" id="Layer_1" xmlns="http://www.w3.org/2000/svg" xmlns:xlink="http://www.w3.org/1999/xlink" x="0px" y="0px"
	 viewBox="0 0 612 612" style="enable-background:new 0 0 612 612;" xml:space="preserve">
<style type="text/css">
	.st0{fill:url(#SVGID_1_);}
	.st1{fill:none;}
	.st2{font-family:'Verdana';}
	.st3{font-size:267px;}
</style>
<linearGradient id="SVGID_1_" gradientUnits="userSpaceOnUse" x1="306" y1="294.7314" x2="306" y2="478.3154">
	<stop  offset="0" style="stop-color:#BE1E2D;stop-opacity:0"/>
	<stop  offset="1" style="stop-color:#ED1C24"/>
</linearGradient>
<path class="st0" d="M502.8,313.2c-68.6-24.7-328.8-24.7-393.9,0c-89,33.8-119.5,78-68.6,119.9c68.6,56.4,449.6,63.9,529.2,0
	C622.3,390.8,595.5,346.6,502.8,313.2z M521.2,424.9c-65.6,52.6-379.4,46.5-435.9,0c-42-34.5-16.8-70.9,56.5-98.8
	c53.6-20.3,267.9-20.3,324.4,0C542.5,353.7,564.6,390.1,521.2,424.9z"/>
<rect x="49.1" y="191.9" class="st1" width="529.2" height="294.9"/>
<text transform="matrix(1 0 0 1 59.1414 394.7936)" class="st2 st3">360</text>
</svg>
